<?xml version="1.0" standalone="no"?>
<!DOCTYPE svg PUBLIC "-//W3C//DTD SVG 20010904//EN"
 "http://www.w3.org/TR/2001/REC-SVG-20010904/DTD/svg10.dtd">
<svg version="1.0" xmlns="http://www.w3.org/2000/svg"
 width="161.000000pt" height="161.000000pt" viewBox="0 0 161.000000 161.000000"
 preserveAspectRatio="xMidYMid meet">
<metadata>
Created by potrace 1.14, written by Peter Selinger 2001-2017
</metadata>
<g transform="translate(0.000000,161.000000) scale(0.100000,-0.100000)"
fill="#000000" stroke="none">
<path d="M0 805 l0 -805 805 0 805 0 0 805 0 805 -805 0 -805 0 0 -805z m721
278 c71 -37 103 -91 103 -178 -1 -70 -19 -111 -68 -152 l-34 -28 57 -104 56
-104 3 296 2 297 215 0 215 0 0 -65 0 -65 -135 0 -135 0 0 -55 0 -55 120 0
120 0 0 -65 0 -65 -120 0 -120 0 0 -120 0 -120 -164 0 -164 0 -57 105 c-52 97
-58 105 -86 105 l-29 0 0 -105 0 -105 -80 0 -80 0 0 305 0 305 163 0 c158 0
165 -1 218 -27z"/>
<path d="M500 911 l0 -81 55 0 c46 0 60 4 80 25 31 30 32 66 3 99 -18 20 -36
27 -80 32 l-58 7 0 -82z"/>
</g>
</svg>
