<?xml version="1.0" encoding="UTF-8" standalone="no"?>
<svg
   width="215.209"
   height="59.399"
   viewBox="0 0 215.209 59.399"
   version="1.1"
   id="svg10"
   sodipodi:docname="logo_light.svg"
   inkscape:version="1.2 (1:1.2+202206011327+fc4e4096c5)"
   xmlns:inkscape="http://www.inkscape.org/namespaces/inkscape"
   xmlns:sodipodi="http://sodipodi.sourceforge.net/DTD/sodipodi-0.dtd"
   xmlns="http://www.w3.org/2000/svg"
   xmlns:svg="http://www.w3.org/2000/svg">
  <defs
     id="defs14" />
  <sodipodi:namedview
     id="namedview12"
     pagecolor="#ffffff"
     bordercolor="#666666"
     borderopacity="1.0"
     inkscape:showpageshadow="2"
     inkscape:pageopacity="0.0"
     inkscape:pagecheckerboard="0"
     inkscape:deskcolor="#d1d1d1"
     showgrid="false"
     inkscape:zoom="3.973131"
     inkscape:cx="101.43134"
     inkscape:cy="29.699499"
     inkscape:window-width="1920"
     inkscape:window-height="1009"
     inkscape:window-x="0"
     inkscape:window-y="34"
     inkscape:window-maximized="1"
     inkscape:current-layer="svg10" />
  <g
     id="Grupo_1"
     data-name="Grupo 1"
     transform="translate(-94.156 -298.659)"
     style="fill:#16181c;fill-opacity:1">
    <path
       id="Caminho_1"
       data-name="Caminho 1"
       d="M177.568,346.069l-3.341-1.279q-.782-.285-1.528-.533t-1.528-.533q-9.1-3.412-17.2-5.828t-15-3.767l-3.127-.569-.142-.355,1.635-.427q.994-.283,3.056-1.066T144.729,330q2.274-.923,4.371-1.812t3.234-1.457a78.122,78.122,0,0,0,13.4-8.28q5.224-4.158,6.362-7.784a5.05,5.05,0,0,0,.213-1.457,8.558,8.558,0,0,0-.142-1.528,7.817,7.817,0,0,0-.426-1.493,4.466,4.466,0,0,0-.782-1.28,10.359,10.359,0,0,0-3.27-2.559,25.33,25.33,0,0,0-5.047-1.955,46.142,46.142,0,0,0-6.5-1.28,58.837,58.837,0,0,0-7.5-.462h-1.28q-.639,0-1.421.071-2.489.072-5.473.356t-6.078.746q-3.092.464-6.148,1.031t-5.687,1.28q-1.492.357-3.518.995t-4.122,1.315q-2.1.676-3.945,1.35t-2.914,1.173a40.064,40.064,0,0,0-8.636,4.833,14.5,14.5,0,0,0-4.584,5.118,9.87,9.87,0,0,0-.427,1.1,7.232,7.232,0,0,0-.214.853,2.55,2.55,0,0,0,0,.853q.07.464.214,1.173a8.35,8.35,0,0,0,.568,1.99,11.554,11.554,0,0,0,.924,1.635,22.267,22.267,0,0,0,2.594,2.843,32.217,32.217,0,0,0,3.625,2.843q2.167,1.492,5.331,3.341t7.784,4.336q1.563.853,3.163,1.777t2.985,1.706q1.386.782,2.488,1.458t1.67,1.1a15.477,15.477,0,0,1,2.7,2.346,5.489,5.489,0,0,1,1.28,2.63c.046.379.142.592.284.64q-.072.427-.142,1.28-.213,2.2-.249,3.056c-.024.569.011.9.107,1a1.506,1.506,0,0,0,.853.32.762.762,0,0,0,.711-.249,1.9,1.9,0,0,0,.249-.853q.107-.711.249-1.635.142-1.919.285-3.092t.32-2.239q.177-1.067.427-2.417t.6-3.625a12.06,12.06,0,0,0,.427-2.559,6.484,6.484,0,0,1,.427-2.132q.214-.781.427-1.422a2.355,2.355,0,0,1,.214-.568q.069,0,1.315.178l2.985.427q1.741.249,3.7.568t3.448.6q2.415.57,4.442,1.067t3.8,1.03q1.775.533,3.447,1.067t3.518,1.172q1.776.64,4.3,1.635t5.011,2.061q2.487,1.066,4.585,2.026t2.95,1.457a3.98,3.98,0,0,0,1.386.6q.6.107.675-.32Q180.411,347.135,177.568,346.069Zm-42.186-15.886q.39-1.883.995-4.336t1.315-5.047q.709-2.594,1.351-4.443.709-2.061,1.243-3.59t1-2.63a20.691,20.691,0,0,1,.889-1.883,11.278,11.278,0,0,1,.853-1.35,2.942,2.942,0,0,0,.64-1.564q0-.64-.782-.853-1.066-.283-2.2,2.417-.356,1.066-.924,3.127t-1.244,4.584q-.676,2.524-1.351,5.26t-1.244,5.153q-.57,2.417-.959,4.3t-.533,2.594a1.486,1.486,0,0,1-.107.64c-.071.142-.261.237-.568.284a7.817,7.817,0,0,1-1.386.036q-.924-.035-2.416-.178-6.469-.568-6.255.853a2.628,2.628,0,0,1,.036.746.483.483,0,0,0,.391.533,3.234,3.234,0,0,0,1.6.036,29.872,29.872,0,0,1,3.021-.32,19.634,19.634,0,0,1,3.8-.285q1.527.072,1.6.285,0,.143-.213,1.173t-.533,2.523q-.32,1.493-.64,3.163t-.6,3.021q-.357,1.707-.569,2.63t-.32,1.244c-.071.213-.131.272-.177.177a2.316,2.316,0,0,1-.142-.568,5.086,5.086,0,0,0-1.528-2.168,22.959,22.959,0,0,0-2.879-2.452q-.783-.57-2.417-1.528t-3.269-1.812q-5.9-3.2-9.88-5.509t-6.61-4.087a32.322,32.322,0,0,1-4.194-3.27,21.133,21.133,0,0,1-2.63-2.985,11.479,11.479,0,0,1-.924-1.635,6.582,6.582,0,0,1-.5-1.564,4.686,4.686,0,0,1,.533-3.34,15.821,15.821,0,0,1,2.808-3.412,31.786,31.786,0,0,1,7.037-4.478,68.1,68.1,0,0,1,10.022-3.909q2.415-.782,5.438-1.529t6.184-1.386q3.162-.64,6.362-1.1t5.971-.676q1.776-.213,3.909-.284t4.265-.071q3.412,0,6.5.178a32.661,32.661,0,0,1,4.727.533,25.09,25.09,0,0,1,4.336,1.137,17.548,17.548,0,0,1,3.269,1.564q2.843,1.777,3.27,3.838.782,4.265-6.468,10.093a46.784,46.784,0,0,1-7.925,5.615,96.35,96.35,0,0,1-10.271,5.047q-1.636.64-3.412,1.28t-3.34,1.137q-1.564.5-2.7.853a6.391,6.391,0,0,1-1.564.355A9.194,9.194,0,0,1,135.382,330.183Z"
       fill="#c49a4e"
       style="fill:#16181c;fill-opacity:1" />
    <path
       id="Caminho_2"
       data-name="Caminho 2"
       d="M233.381,353.452a5.918,5.918,0,0,0,1.493-.427,7.148,7.148,0,0,0,1.421-.817,3.39,3.39,0,0,0,.959-1q.355-.781-.177-.995a1.121,1.121,0,0,0-1.173.355q-.356.284-.746.64a4.864,4.864,0,0,0-.6.64,1.816,1.816,0,0,1-1.493.568,1.127,1.127,0,0,0-.995.249q-.285.32.213.675A1.725,1.725,0,0,0,233.381,353.452Z"
       transform="translate(-70.633 -26.397)"
       fill="#c49a4e"
       style="fill:#16181c;fill-opacity:1" />
    <path
       id="Caminho_3"
       data-name="Caminho 3"
       d="M238.367,346.173c-.01.081-.019.156-.029.235l-.042.049a19.024,19.024,0,0,1-2.808,2.986,7.448,7.448,0,0,1-1.279.889,1.552,1.552,0,0,1-.96.249q-.853-.07-.853-2.061a13.437,13.437,0,0,1,.213-2.133,24.729,24.729,0,0,1,.569-2.559q.64-2.274.746-2.914c.071-.427.011-.64-.177-.64q-.143,0-1.067,1.173t-2.061,2.808q-2.276,3.342-3.377,4.727t-1.457,1.03c-.1-.046-.107-.272-.036-.675a10.854,10.854,0,0,1,.355-1.386q.248-.781.533-1.67a8.372,8.372,0,0,1,.64-1.528,2.989,2.989,0,0,0,.427-1.564.618.618,0,0,0-.711-.569,1.092,1.092,0,0,0-.817.462,5.354,5.354,0,0,0-.746,1.244,10.414,10.414,0,0,0-.6,1.777,11.8,11.8,0,0,0-.32,2.061,7.015,7.015,0,0,0-.036,1.848,1.42,1.42,0,0,0,.32.711v-.071a1.158,1.158,0,0,0,1.493-.107,17.981,17.981,0,0,0,2.487-2.808l1.208-1.706a14.543,14.543,0,0,1,2.1-2.487q.32-.142-.036.853a.594.594,0,0,1-.036.178.569.569,0,0,0-.036.178q-.072.5-.142,1.493t-.071,1.99a11.042,11.042,0,0,0,.107,1.919.977.977,0,0,0,.533.711,1.539,1.539,0,0,0,.889.32,4.383,4.383,0,0,0,1.1-.391,8.76,8.76,0,0,0,1.848-1.421,19.182,19.182,0,0,0,2.023-2.281c-.042.379-.078.727-.1,1.037a2.011,2.011,0,0,1-.214.96,1.857,1.857,0,0,1-1.137.213q-.781.072-.746.427t.746.5a3.948,3.948,0,0,1,.676.071,3.546,3.546,0,0,0,.6.071l.213,2.346q.142.853.285,1.671a6.372,6.372,0,0,0,.284,1.173q.426,1.066.889.427a7.785,7.785,0,0,0,.817-2.843q.213-1.138.355-1.812a3.435,3.435,0,0,1,.355-1.031,1.635,1.635,0,0,1,.568-.568q.355-.214.924-.5a5.913,5.913,0,0,0,1.706-1.208,11.525,11.525,0,0,0,1.386-1.67,7.508,7.508,0,0,0,.924-1.848,5.547,5.547,0,0,0,.32-1.741q0-1.563-1.351-1.564a1.938,1.938,0,0,0-1.493.959,31.464,31.464,0,0,0-1.99,3.305,10.916,10.916,0,0,1-1.884,3.056q-.818.783-.817-.427a16.405,16.405,0,0,1,.214-1.848q.213-1.421.533-3.163t.711-3.518q.39-1.776.675-2.914.355-1.208.96-3.092t1.1-3.376a21.949,21.949,0,0,0,.888-2.665,8.73,8.73,0,0,0,.32-1.6,2.426,2.426,0,0,0-.355-.284.765.765,0,0,0-.427-.142q-1.138,0-2.346,4.123-.426,1.564-.995,3.981t-1.1,4.9q-.533,2.49-.924,4.621T238.367,346.173Zm4.336.284a14.6,14.6,0,0,1,.817-1.421,11.729,11.729,0,0,1,.853-1.173,2.422,2.422,0,0,1,.675-.6c.189-.094.285-.023.285.214a2.719,2.719,0,0,1-.214.853,6.384,6.384,0,0,1-.568,1.137,6.525,6.525,0,0,1-.853,1.244q-.57.676-.924,1.03l-.711.427-.142-.214Zm-2.985,3.625q.568,0,.427.64a4.542,4.542,0,0,1-.071.711,3.825,3.825,0,0,1-.214.782q-.284,1.066-.355.995a8.151,8.151,0,0,1-.213-1.564,3.745,3.745,0,0,1,.142-1.1C239.528,350.237,239.622,350.083,239.718,350.083Z"
       transform="translate(-66.77 -13.752)"
       fill="#c49a4e"
       style="fill:#16181c;fill-opacity:1" />
    <path
       id="Caminho_4"
       data-name="Caminho 4"
       d="M295.828,361.771a15.01,15.01,0,0,1-3.27,1.137,5.038,5.038,0,0,1-2.2.071,3.026,3.026,0,0,1-.924-.746q-.57-.6-1.067-1.244-.426-.568-.888-1.1a2.173,2.173,0,0,0-.676-.6q-.356-.213-1.172.64t-2.737,3.2l-1.777,2.274.071-1.493a9.187,9.187,0,0,1,.285-1.813q.283-1.243.64-2.452a10.568,10.568,0,0,0,.64-3.092q-.072-.746-1.067-.6a.706.706,0,0,0-.427.107,1.373,1.373,0,0,0-.32.427,3.717,3.717,0,0,0-.32.959q-.143.64-.427,1.777-.322,1.839-.464,3.185c-.082.147-.161.292-.246.441q-2.132,3.768-3.838,4.016t-2.346-2.1q-.143-.5.036-.533a4.146,4.146,0,0,0,.959-.676,8.338,8.338,0,0,0,2.061-2.63,6.449,6.449,0,0,0,.853-2.914q0-1-.391-1.28a1.827,1.827,0,0,0-1.315-.142,4.629,4.629,0,0,0-1.528,1.351,6.5,6.5,0,0,0-1.315,2.346,2.2,2.2,0,0,1-.6.924,2.023,2.023,0,0,1-1.031.071,1.528,1.528,0,0,0-1.03.036,2.54,2.54,0,0,0-.533,1.173v-.071q-.141.57.178.64a4.481,4.481,0,0,1,.675.213,3.99,3.99,0,0,1,1,.462,1.321,1.321,0,0,1,.355.533,6.662,6.662,0,0,0,1.35,2.417,5.725,5.725,0,0,0,1.386,1.03,1.885,1.885,0,0,0,1.6.071,5.053,5.053,0,0,0,1.883-1.528,16.631,16.631,0,0,0,1.748-2.645c0,.04-.005.083-.007.121a8.793,8.793,0,0,0,.142,2.452.757.757,0,0,0,.96.64,2.05,2.05,0,0,0,1.315-1.137q.5-.709,1.209-1.67t1.35-1.742q.64-.782,1.138-1.351t.639-.568q.142,0,.391.32a2.524,2.524,0,0,1,.391.746,4.705,4.705,0,0,0,.781.995,8.759,8.759,0,0,0,1.031.889,6.3,6.3,0,0,0,1.066.64,2.2,2.2,0,0,0,.889.249,7.508,7.508,0,0,0,2.346-.533,13.669,13.669,0,0,0,2.986-1.528q.994-.568.853-.746T295.828,361.771Zm-22.141-1.421q.249-.5.6-1.1a10.452,10.452,0,0,1,.711-1.067,7.452,7.452,0,0,1,.5-.6c.284-.142.45.024.5.5a2.348,2.348,0,0,1-.427,1.493,4.443,4.443,0,0,1-1.315,1.421q-.817.57-.817.071A1.91,1.91,0,0,1,273.687,360.349Z"
       transform="translate(-89.829 -29.349)"
       fill="#c49a4e"
       style="fill:#16181c;fill-opacity:1" />
    <path
       id="Caminho_5"
       data-name="Caminho 5"
       d="M438.273,298.872a7.02,7.02,0,0,0-1.67-.178q-1.245-.034-3.021-.035-1.919,0-4.3.035t-4.9.142l-4.976.213q-2.452.107-4.584.32-2.417.213-5.651.568l-6.468.711q-3.235.356-6.042.711t-4.3.568q-2.2.357-5.011.817t-5.686.96q-2.879.5-5.509.995t-4.407.853q-4.409,1.066-8.565,2.417t-7.428,2.772a39.08,39.08,0,0,0-5.331,2.737q-2.061,1.316-2.2,2.31-.214,1.066,1.244,1.955a33.857,33.857,0,0,0,5.366,2.31q1.067.427,2.346,1.067a26.063,26.063,0,0,1,2.488,1.421q1.208.783,2.2,1.564a12.333,12.333,0,0,1,1.564,1.421q.426.57.924,1.351a5.341,5.341,0,0,1,.64,1.28l.711,1.421-3.412,1.066q-4.549,1.423-5.864,2.026t-.533,1.03a2.014,2.014,0,0,0,1.03.178,6.3,6.3,0,0,0,1.173-.178,3.236,3.236,0,0,0,.959-.391q.39-.249.32-.533-.072-.214.817-.6t2.168-.817q1.136-.355,2.1-.6a8.835,8.835,0,0,1,1.1-.249q.426,0,.746.675a20.576,20.576,0,0,1,.889,2.737q.141.64.32,1.315t.32,1.457q.142,1,.391,2.595t.391,3.874q.214,2.985.32,5.011a11.6,11.6,0,0,1-.035,2.594,9.2,9.2,0,0,0-.249,1.315q-.106.817-.142,1.671c-.024.568-.035,1.125-.035,1.67a9.732,9.732,0,0,0,.071,1.315,1.409,1.409,0,0,0,.569,1.208q1,.355,1.173-.355a16.365,16.365,0,0,0-.106-3.767q-.072-1.706-.072-3.625t.142-3.341q.142-1.209.5-3.269t.817-4.407q.461-2.346.924-4.62t.889-3.981l.568-2.559,2.417-.5q5.26-1.135,10.165-1.812t8.529-.817a12.4,12.4,0,0,1,2.452-.036q.747.107.817.249c0,.142.107.19.32.142a.472.472,0,0,0,.391-.284.6.6,0,0,0-.107-.64,1.312,1.312,0,0,0-.675-.5q-.427,0-1.528.071a12.606,12.606,0,0,0-2.239.355l-4.052.568q-1.067.143-2.2.32t-2.133.32q-1.991.356-4.371.711t-3.731.64l-3.057.569-.355.142q-.072,0,.142-1.03t.64-2.7q.426-1.669.96-3.661t1.1-3.909l1.03-3.483q.462-1.563.746-2.417a17.391,17.391,0,0,0,.96-3.27q.107-.923-.533-1.137c-.1,0-.261.012-.5.036s-.4.036-.5.036a1.465,1.465,0,0,0-.427.569,5.291,5.291,0,0,0-.355.924,7.291,7.291,0,0,0-.214,1,2.132,2.132,0,0,0,0,.782,24.082,24.082,0,0,1-.781,4.194q-.853,3.7-2.915,11.3l-.853,3.128-3.27.64h.071a17.293,17.293,0,0,1-2.346.5q-1.067.143-1.137,0h.071a2.655,2.655,0,0,1-.356-.5c-.142-.237-.309-.5-.5-.782A15.694,15.694,0,0,0,361.435,323a28.86,28.86,0,0,0-6.752-3.874q-4.764-1.919-4.9-2.772-.07-.427.96-1.208a20.8,20.8,0,0,1,2.772-1.706q1.741-.923,3.981-1.919t4.585-1.848q6.467-2.061,14.962-3.909t17.734-3.234q9.24-1.386,18.587-2.2t17.521-.817H436q1.136,0,1.706.036c.379.024.64.048.782.071s.2.071.177.142a.606.606,0,0,1-.249.249c-.237.238-.237.368,0,.391a1.209,1.209,0,0,0,.782-.249Q440.263,299.37,438.273,298.872Zm-70.547,30.849a20.321,20.321,0,0,0,2.026-.569q2.06-.568,2.594-.64c.355-.047.508.119.462.5a15.915,15.915,0,0,0-.533,2.7q-.392,2.489-.959,5.757l-.782,4.407q-.356,1.563-.533,2.559t-.32,1.067h.072q-.213.355-.356-.107a4.041,4.041,0,0,1-.142-1.173q-.071-.783-.177-1.883t-.284-2.381q-.178-1.28-.355-2.559t-.391-2.417q-.285-1.349-.5-2.31a10.088,10.088,0,0,0-.355-1.315l-.568-1.422A10.123,10.123,0,0,0,367.726,329.721Z"
       transform="translate(-130.204)"
       fill="#c49a4e"
       style="fill:#16181c;fill-opacity:1" />
    <path
       id="Caminho_6"
       data-name="Caminho 6"
       d="M456.873,347.5a3.069,3.069,0,0,0,.533-1.528q-.037-.533-.746-.391a1.692,1.692,0,0,0-.995.853,2.088,2.088,0,0,0-.284,1.493Q455.735,349.633,456.873,347.5Z"
       transform="translate(-185.128 -24.035)"
       fill="#c49a4e"
       style="fill:#16181c;fill-opacity:1" />
    <path
       id="Caminho_7"
       data-name="Caminho 7"
       d="M469.479,351.166a29.7,29.7,0,0,0-2.665,1.457l-2.843,1.706-1.777-1.493h.071a.112.112,0,0,1-.107-.071.116.116,0,0,0-.107-.071q-.64-.568-1.066-1a3.828,3.828,0,0,1-.261-.285,1.532,1.532,0,0,0,.119-.426,1.065,1.065,0,0,0-.014-.183c.065-.053.139-.11.227-.173a10.272,10.272,0,0,1,1.173-.711q.675-.355,1.315-.64a2.693,2.693,0,0,1,1-.285,2.174,2.174,0,0,0,1.564-.711h-.072a2.886,2.886,0,0,0,.6-.959q.034-.249-.533-.676a1.428,1.428,0,0,0-1.493-.284,13.932,13.932,0,0,0-2.7,1.493,12.393,12.393,0,0,0-2.133,1.635,2.163,2.163,0,0,0-.781,1.421,1.609,1.609,0,0,0,.5,1.1c.029.031.066.066.1.1q-.652,1.114-1.731,3.136-1,1.85-1.919,3.412a12.071,12.071,0,0,1-1.35,1.99h.071q-1,1.208-1.421.462a8.9,8.9,0,0,1-.355-3.661c0-.663.011-1.255.036-1.777a11.552,11.552,0,0,1,.177-1.564q.141-.781.355-1.67t.569-2.026q.426-1.493.675-2.665a4.221,4.221,0,0,0,.178-1.315q-.144-.5-.924-.355a1.107,1.107,0,0,0-.711.32,3.848,3.848,0,0,0-.5,1.173,11.165,11.165,0,0,1-1.279,2.879q-.5.6-1.067-.107a2.416,2.416,0,0,0-1.35-.214q-2.418,0-4.194,3.412a6.176,6.176,0,0,0-.924,2.985,2.633,2.633,0,0,0,.1.739c-.505,1.081-1.044,2.16-1.627,3.241a24.319,24.319,0,0,1-1.955,3.092q-1,1.315-1.706,1.315-.57,0-.818-.959a10.719,10.719,0,0,1-.249-2.595q0-1.564.214-3.661t.6-4.3q.39-2.2.96-4.407a32.607,32.607,0,0,1,1.28-3.98q.283-.709.426-1.172a1.136,1.136,0,0,1,.5-.676,10.807,10.807,0,0,1,1.564-.462,23.053,23.053,0,0,1,3.98-.462,13.762,13.762,0,0,1,2.594-.035q.675.107.533.39c-.1.142-.1.238,0,.285a.636.636,0,0,0,.427,0,4.942,4.942,0,0,0,.64-.214,1.672,1.672,0,0,0,.568-.355q.141-.5,0-.64a3.315,3.315,0,0,0-1.137-.142q-.783,0-2.133.142-1.422.143-2.239.213t-1.457.142q-.64.072-1.35.142t-1.848.284l.924-1.422a2.786,2.786,0,0,0,.5-1.564q-.072-.568-.853-.568-1.21,0-1.848,2.2c-.048.238-.107.5-.178.782s-.131.545-.177.782l-3.154.5q-1.607.357-2.6.64t-.711.5a1.605,1.605,0,0,0,.32.533c.119.119.177.131.177.036,0-.047.273-.142.817-.285s1.137-.284,1.777-.426,1.267-.273,1.884-.391c.5-.1.837-.152,1.025-.17q-.9,3.245-1.485,5.678c-.235.972-.44,1.884-.621,2.75l-.269.448c-.1.142-.214.345-.355.6s-.261.462-.355.6a19.207,19.207,0,0,1-2.985,3.661q-1.565,1.458-2.488,1.315-1.137-.143-1.137-1.99a10.233,10.233,0,0,1,.356-2.417,15.534,15.534,0,0,1,1.066-2.914,2.987,2.987,0,0,0,.284-1.457.593.593,0,0,0-.64-.6q-1.209,0-2.061,2.63a8.982,8.982,0,0,0-.39,1.671,11.766,11.766,0,0,0-.107,1.528c0,.021,0,.04,0,.061-1.168,1.827-2.236,2.819-3.2,2.96q-1.706.25-2.346-2.1-.143-.5.036-.533a4.156,4.156,0,0,0,.96-.676,8.338,8.338,0,0,0,2.061-2.63,6.443,6.443,0,0,0,.853-2.914q0-1-.39-1.28a1.829,1.829,0,0,0-1.316-.142,4.624,4.624,0,0,0-1.528,1.351,6.488,6.488,0,0,0-1.315,2.346c-.079.173-.152.314-.223.44l-.274.129a9.593,9.593,0,0,1-1.036.433c-.035,0-.064,0-.1-.006a1.528,1.528,0,0,0-1.03.036.755.755,0,0,0-.175.23,1.673,1.673,0,0,1-.678-.123q-.96-.426-.676-2.488a9.018,9.018,0,0,0,.213-1.457.715.715,0,0,0-.284-.6c-.332-.33-.616-.45-.853-.355a4.1,4.1,0,0,0-1.137,1.067q-.5.57-1.173,1.421t-1.421,1.883a22.659,22.659,0,0,0-1.386,2.168,18.608,18.608,0,0,0-1.066,2.2,2.22,2.22,0,0,1-.071-1.066,13.8,13.8,0,0,1,.284-1.742q.214-.959.533-1.99t.676-1.884a4,4,0,0,0,.5-1.137,3.89,3.89,0,0,0,.142-.853,1.19,1.19,0,0,0-.781-.32,1.426,1.426,0,0,0-.853.177,4.812,4.812,0,0,0-.817,2.026,28.458,28.458,0,0,0-.6,3.376,23.633,23.633,0,0,0-.178,3.341q.037,1.565.462,1.848a.558.558,0,0,0,.817,0,2.938,2.938,0,0,0,.817-1.138q.284-.709.747-1.67t1-1.884q.532-.923,1.03-1.671t.781-1.1l.711-.711c.1-.094.166.025.214.355a3.613,3.613,0,0,0,.818,2.346,3.107,3.107,0,0,0,1.172.782,3.161,3.161,0,0,0,.7.129c-.072.34-.014.538.187.582a4.482,4.482,0,0,1,.676.213,3.975,3.975,0,0,1,.995.462,1.31,1.31,0,0,1,.355.533,5.393,5.393,0,0,0,.569,1.315,5.32,5.32,0,0,0,.782,1.1,5.723,5.723,0,0,0,1.386,1.03,1.885,1.885,0,0,0,1.6.071,5.057,5.057,0,0,0,1.884-1.528,12.666,12.666,0,0,0,1.017-1.411,5.4,5.4,0,0,0,1.08,2.832,1.659,1.659,0,0,0,1.492.64,2.631,2.631,0,0,0,1.316-.39,8.83,8.83,0,0,0,1.457-1.1,17.54,17.54,0,0,0,1.848-2.025,24.572,24.572,0,0,0,1.445-2.032q-.331,1.891-.459,3.6-.133,1.813-.133,3.8a8.979,8.979,0,0,0,.267,2.417,5.02,5.02,0,0,0,.666,1.493,1.261,1.261,0,0,0,1.341.568,3.051,3.051,0,0,0,1.635-.924,8.348,8.348,0,0,0,1.03-1.386q.6-.959,1.244-2.2t1.315-2.665c.114-.24.225-.486.337-.729a1.475,1.475,0,0,0,1.119.445q1.35,0,3.91-3.838.639-.994,1.172-1.706c.355-.473.6-.64.746-.5a3.59,3.59,0,0,0-.071.711,3.784,3.784,0,0,0-.071.746,6.512,6.512,0,0,1-.071.889,5.685,5.685,0,0,0-.142,1.244v1.172a10.31,10.31,0,0,0,.427,3.164,2.869,2.869,0,0,0,1.208,1.741,2.3,2.3,0,0,0,1.03.355,1.389,1.389,0,0,0,.68-.253c0,.013,0,.027,0,.04a3.35,3.35,0,0,0,.071.64,2.268,2.268,0,0,0,.142.5q1.35.71,7.819-4.123a7.517,7.517,0,0,0,1.919-1.884,1.87,1.87,0,0,0,.071-1.67,1.708,1.708,0,0,1-.178-.533.568.568,0,0,1,.249-.5,6.246,6.246,0,0,1,.889-.6q.6-.355,1.742-.995,1.28-.64,2.133-1.137t.853-.64Q470.084,350.918,469.479,351.166Zm-45.524-.64a10.371,10.371,0,0,1,.711-1.067,7.5,7.5,0,0,1,.5-.6c.285-.142.45.024.5.5a2.348,2.348,0,0,1-.427,1.493,4.453,4.453,0,0,1-1.315,1.421q-.818.57-.817.071a1.909,1.909,0,0,1,.249-.711Q423.6,351.132,423.955,350.527Zm-4.834,3.221h0l0,.013Zm28.288,2.287a3.017,3.017,0,0,1-1.551,1.173c-.434.071-.653-.154-.653-.676a1.666,1.666,0,0,1,.031-.294c.061-.139.123-.276.183-.416.122-.3.232-.576.336-.838a9.191,9.191,0,0,1,.721-1.117,7.2,7.2,0,0,1,1.115-1.173,1.75,1.75,0,0,1,1.026-.5q2.06,0-1.28,3.838Zm10.734.5q.708-1.28,1.315-2.452c.269-.523.5-.994.709-1.421.238.208.508.431.819.675a5.192,5.192,0,0,1,1.457,1.315q.106.32-.533.675a57.908,57.908,0,0,0-5.241,3.77l.088-.145Q457.432,357.813,458.143,356.533Zm.853,3.412v-.071l-.5.355-1.634.817a2.942,2.942,0,0,1-.782.32c-.142,0-.118-.142.071-.427a6.419,6.419,0,0,1,.924-1.03q.64-.605,1.457-1.315t1.67-1.351a11.511,11.511,0,0,1,2.63-1.421q.781-.214.781.64Q463.615,357.528,459,359.944Z"
       transform="translate(-161.805 -20.628)"
       fill="#c49a4e"
       style="fill:#16181c;fill-opacity:1" />
  </g>
</svg>
