<?xml version="1.0" encoding="UTF-8" standalone="no"?>
<svg
   width="250"
   height="59.406334"
   viewBox="0 0 250 59.406336"
   version="1.1"
   id="svg10"
   sodipodi:docname="logo_light.svg"
   inkscape:version="1.3.2 (1:1.3.2+202311252150+091e20ef0f)"
   xmlns:inkscape="http://www.inkscape.org/namespaces/inkscape"
   xmlns:sodipodi="http://sodipodi.sourceforge.net/DTD/sodipodi-0.dtd"
   xmlns="http://www.w3.org/2000/svg"
   xmlns:svg="http://www.w3.org/2000/svg">
  <defs
     id="defs14" />
  <sodipodi:namedview
     id="namedview12"
     pagecolor="#ffffff"
     bordercolor="#666666"
     borderopacity="1.0"
     inkscape:showpageshadow="2"
     inkscape:pageopacity="0.0"
     inkscape:pagecheckerboard="0"
     inkscape:deskcolor="#d1d1d1"
     showgrid="false"
     inkscape:zoom="3.973131"
     inkscape:cx="104.19994"
     inkscape:cy="14.472213"
     inkscape:window-width="1920"
     inkscape:window-height="1043"
     inkscape:window-x="0"
     inkscape:window-y="0"
     inkscape:window-maximized="1"
     inkscape:current-layer="svg10"
     showguides="true">
    <sodipodi:guide
       position="124.83857,27.44162"
       orientation="1,0"
       id="guide1"
       inkscape:locked="false" />
  </sodipodi:namedview>
  <g
     id="g2"
     transform="translate(-78.036195,-299.34311)"
     style="fill:#16181c;fill-opacity:1">
    <path
       id="Caminho_1-3"
       data-name="Caminho 1"
       d="m 167.09832,347.85939 -3.341,-1.279 q -0.782,-0.285 -1.528,-0.533 -0.746,-0.248 -1.528,-0.533 -9.1,-3.412 -17.2,-5.828 -8.1,-2.416 -15,-3.767 l -3.127,-0.569 -0.142,-0.355 1.635,-0.427 q 0.994,-0.283 3.056,-1.066 2.062,-0.783 4.336,-1.712 2.274,-0.923 4.371,-1.812 2.097,-0.889 3.234,-1.457 a 78.122,78.122 0 0 0 13.4,-8.28 q 5.224,-4.158 6.362,-7.784 a 5.05,5.05 0 0 0 0.213,-1.457 8.558,8.558 0 0 0 -0.142,-1.528 7.817,7.817 0 0 0 -0.426,-1.493 4.466,4.466 0 0 0 -0.782,-1.28 10.359,10.359 0 0 0 -3.27,-2.559 25.33,25.33 0 0 0 -5.047,-1.955 46.142,46.142 0 0 0 -6.5,-1.28 58.837,58.837 0 0 0 -7.5,-0.462 h -1.28 q -0.639,0 -1.421,0.071 -2.489,0.072 -5.473,0.356 -2.984,0.284 -6.078,0.746 -3.092,0.464 -6.148,1.031 -3.056,0.567 -5.687,1.28 -1.492,0.357 -3.518,0.995 -2.026,0.638 -4.122,1.315 -2.1,0.676 -3.945,1.35 -1.844997,0.674 -2.913997,1.173 a 40.064,40.064 0 0 0 -8.636,4.833 14.5,14.5 0 0 0 -4.584,5.118 9.87,9.87 0 0 0 -0.427,1.1 7.232,7.232 0 0 0 -0.214,0.853 2.55,2.55 0 0 0 0,0.853 q 0.07,0.464 0.214,1.173 a 8.35,8.35 0 0 0 0.568,1.99 11.554,11.554 0 0 0 0.924,1.635 22.267,22.267 0 0 0 2.594,2.843 32.217,32.217 0 0 0 3.625,2.843 q 2.167,1.492 5.331,3.341 3.163997,1.849 7.783997,4.336 1.563,0.853 3.163,1.777 1.6,0.924 2.985,1.706 1.386,0.782 2.488,1.458 1.102,0.676 1.67,1.1 a 15.477,15.477 0 0 1 2.7,2.346 5.489,5.489 0 0 1 1.28,2.63 c 0.046,0.379 0.142,0.592 0.284,0.64 q -0.072,0.427 -0.142,1.28 -0.213,2.2 -0.249,3.056 c -0.024,0.569 0.011,0.9 0.107,1 a 1.506,1.506 0 0 0 0.853,0.32 0.762,0.762 0 0 0 0.711,-0.249 1.9,1.9 0 0 0 0.249,-0.853 q 0.107,-0.711 0.249,-1.635 0.142,-1.919 0.285,-3.092 0.143,-1.173 0.32,-2.239 0.177,-1.067 0.427,-2.417 0.25,-1.35 0.6,-3.625 a 12.06,12.06 0 0 0 0.427,-2.559 6.484,6.484 0 0 1 0.427,-2.132 q 0.214,-0.781 0.427,-1.422 a 2.355,2.355 0 0 1 0.214,-0.568 q 0.069,0 1.315,0.178 l 2.985,0.427 q 1.741,0.249 3.7,0.568 1.959,0.319 3.448,0.6 2.415,0.57 4.442,1.067 2.027,0.497 3.8,1.03 1.775,0.533 3.447,1.067 1.672,0.534 3.518,1.172 1.776,0.64 4.3,1.635 2.524,0.995 5.011,2.061 2.487,1.066 4.585,2.026 2.098,0.96 2.95,1.457 a 3.98,3.98 0 0 0 1.386,0.6 q 0.6,0.107 0.675,-0.32 0.139,-0.843 -2.704,-1.909 z m -42.186,-15.886 q 0.39,-1.883 0.995,-4.336 0.605,-2.453 1.315,-5.047 0.709,-2.594 1.351,-4.443 0.709,-2.061 1.243,-3.59 0.534,-1.529 1,-2.63 a 20.691,20.691 0 0 1 0.889,-1.883 11.278,11.278 0 0 1 0.853,-1.35 2.942,2.942 0 0 0 0.64,-1.564 q 0,-0.64 -0.782,-0.853 -1.066,-0.283 -2.2,2.417 -0.356,1.066 -0.924,3.127 -0.568,2.061 -1.244,4.584 -0.676,2.524 -1.351,5.26 -0.675,2.736 -1.244,5.153 -0.57,2.417 -0.959,4.3 -0.389,1.883 -0.533,2.594 a 1.486,1.486 0 0 1 -0.107,0.64 c -0.071,0.142 -0.261,0.237 -0.568,0.284 a 7.817,7.817 0 0 1 -1.386,0.036 q -0.924,-0.035 -2.416,-0.178 -6.469,-0.568 -6.255,0.853 a 2.628,2.628 0 0 1 0.036,0.746 0.483,0.483 0 0 0 0.391,0.533 3.234,3.234 0 0 0 1.6,0.036 29.872,29.872 0 0 1 3.021,-0.32 19.634,19.634 0 0 1 3.8,-0.285 q 1.527,0.072 1.6,0.285 0,0.143 -0.213,1.173 -0.213,1.03 -0.533,2.523 -0.32,1.493 -0.64,3.163 -0.32,1.67 -0.6,3.021 -0.357,1.707 -0.569,2.63 -0.212,0.923 -0.32,1.244 c -0.071,0.213 -0.131,0.272 -0.177,0.177 a 2.316,2.316 0 0 1 -0.142,-0.568 5.086,5.086 0 0 0 -1.528,-2.168 22.959,22.959 0 0 0 -2.879,-2.452 q -0.783,-0.57 -2.417,-1.528 -1.634,-0.958 -3.269,-1.812 -5.9,-3.2 -9.88,-5.509 -3.979997,-2.309 -6.609997,-4.087 a 32.322,32.322 0 0 1 -4.194,-3.27 21.133,21.133 0 0 1 -2.63,-2.985 11.479,11.479 0 0 1 -0.924,-1.635 6.582,6.582 0 0 1 -0.5,-1.564 4.686,4.686 0 0 1 0.533,-3.34 15.821,15.821 0 0 1 2.808,-3.412 31.786,31.786 0 0 1 7.037,-4.478 68.1,68.1 0 0 1 10.021997,-3.909 q 2.415,-0.782 5.438,-1.529 3.023,-0.747 6.184,-1.386 3.162,-0.64 6.362,-1.1 3.2,-0.46 5.971,-0.676 1.776,-0.213 3.909,-0.284 2.133,-0.071 4.265,-0.071 3.412,0 6.5,0.178 a 32.661,32.661 0 0 1 4.727,0.533 25.09,25.09 0 0 1 4.336,1.137 17.548,17.548 0 0 1 3.269,1.564 q 2.843,1.777 3.27,3.838 0.782,4.265 -6.468,10.093 a 46.784,46.784 0 0 1 -7.925,5.615 96.35,96.35 0 0 1 -10.271,5.047 q -1.636,0.64 -3.412,1.28 -1.776,0.64 -3.34,1.137 -1.564,0.5 -2.7,0.853 a 6.391,6.391 0 0 1 -1.564,0.355 9.194,9.194 0 0 1 0.309,-2.167 z"
       fill="#c49a4e"
       style="fill:#16181c;fill-opacity:1" />
    <path
       id="Caminho_2-6"
       data-name="Caminho 2"
       d="m 152.27832,328.84539 a 5.918,5.918 0 0 0 1.493,-0.427 7.148,7.148 0 0 0 1.421,-0.817 3.39,3.39 0 0 0 0.959,-1 q 0.355,-0.781 -0.177,-0.995 a 1.121,1.121 0 0 0 -1.173,0.355 q -0.356,0.284 -0.746,0.64 a 4.864,4.864 0 0 0 -0.6,0.64 1.816,1.816 0 0 1 -1.493,0.568 1.127,1.127 0 0 0 -0.995,0.249 q -0.285,0.32 0.213,0.675 a 1.725,1.725 0 0 0 1.098,0.112 z"
       fill="#c49a4e"
       style="fill:#16181c;fill-opacity:1" />
    <path
       id="Caminho_3-7"
       data-name="Caminho 3"
       d="m 161.12732,334.21139 c -0.01,0.081 -0.019,0.156 -0.029,0.235 l -0.042,0.049 a 19.024,19.024 0 0 1 -2.808,2.986 7.448,7.448 0 0 1 -1.279,0.889 1.552,1.552 0 0 1 -0.96,0.249 q -0.853,-0.07 -0.853,-2.061 a 13.437,13.437 0 0 1 0.213,-2.133 24.729,24.729 0 0 1 0.569,-2.559 q 0.64,-2.274 0.746,-2.914 c 0.071,-0.427 0.011,-0.64 -0.177,-0.64 q -0.143,0 -1.067,1.173 -0.924,1.173 -2.061,2.808 -2.276,3.342 -3.377,4.727 -1.101,1.385 -1.457,1.03 c -0.1,-0.046 -0.107,-0.272 -0.036,-0.675 a 10.854,10.854 0 0 1 0.355,-1.386 q 0.248,-0.781 0.533,-1.67 a 8.372,8.372 0 0 1 0.64,-1.528 2.989,2.989 0 0 0 0.427,-1.564 0.618,0.618 0 0 0 -0.711,-0.569 1.092,1.092 0 0 0 -0.817,0.462 5.354,5.354 0 0 0 -0.746,1.244 10.414,10.414 0 0 0 -0.6,1.777 11.8,11.8 0 0 0 -0.32,2.061 7.015,7.015 0 0 0 -0.036,1.848 1.42,1.42 0 0 0 0.32,0.711 v -0.071 a 1.158,1.158 0 0 0 1.493,-0.107 17.981,17.981 0 0 0 2.487,-2.808 l 1.208,-1.706 a 14.543,14.543 0 0 1 2.1,-2.487 q 0.32,-0.142 -0.036,0.853 a 0.594,0.594 0 0 1 -0.036,0.178 0.569,0.569 0 0 0 -0.036,0.178 q -0.072,0.5 -0.142,1.493 -0.07,0.993 -0.071,1.99 a 11.042,11.042 0 0 0 0.107,1.919 0.977,0.977 0 0 0 0.533,0.711 1.539,1.539 0 0 0 0.889,0.32 4.383,4.383 0 0 0 1.1,-0.391 8.76,8.76 0 0 0 1.848,-1.421 19.182,19.182 0 0 0 2.023,-2.281 c -0.042,0.379 -0.078,0.727 -0.1,1.037 a 2.011,2.011 0 0 1 -0.214,0.96 1.857,1.857 0 0 1 -1.137,0.213 q -0.781,0.072 -0.746,0.427 0.035,0.355 0.746,0.5 a 3.948,3.948 0 0 1 0.676,0.071 3.546,3.546 0 0 0 0.6,0.071 l 0.213,2.346 q 0.142,0.853 0.285,1.671 a 6.372,6.372 0 0 0 0.284,1.173 q 0.426,1.066 0.889,0.427 a 7.785,7.785 0 0 0 0.817,-2.843 q 0.213,-1.138 0.355,-1.812 a 3.435,3.435 0 0 1 0.355,-1.031 1.635,1.635 0 0 1 0.568,-0.568 q 0.355,-0.214 0.924,-0.5 a 5.913,5.913 0 0 0 1.706,-1.208 11.525,11.525 0 0 0 1.386,-1.67 7.508,7.508 0 0 0 0.924,-1.848 5.547,5.547 0 0 0 0.32,-1.741 q 0,-1.563 -1.351,-1.564 a 1.938,1.938 0 0 0 -1.493,0.959 31.464,31.464 0 0 0 -1.99,3.305 10.916,10.916 0 0 1 -1.884,3.056 q -0.818,0.783 -0.817,-0.427 a 16.405,16.405 0 0 1 0.214,-1.848 q 0.213,-1.421 0.533,-3.163 0.32,-1.742 0.711,-3.518 0.39,-1.776 0.675,-2.914 0.355,-1.208 0.96,-3.092 0.605,-1.884 1.1,-3.376 a 21.949,21.949 0 0 0 0.888,-2.665 8.73,8.73 0 0 0 0.32,-1.6 2.426,2.426 0 0 0 -0.355,-0.284 0.765,0.765 0 0 0 -0.427,-0.142 q -1.138,0 -2.346,4.123 -0.426,1.564 -0.995,3.981 -0.569,2.417 -1.1,4.9 -0.533,2.49 -0.924,4.621 -0.391,2.131 -0.464,3.053 z m 4.336,0.284 a 14.6,14.6 0 0 1 0.817,-1.421 11.729,11.729 0 0 1 0.853,-1.173 2.422,2.422 0 0 1 0.675,-0.6 c 0.189,-0.094 0.285,-0.023 0.285,0.214 a 2.719,2.719 0 0 1 -0.214,0.853 6.384,6.384 0 0 1 -0.568,1.137 6.525,6.525 0 0 1 -0.853,1.244 q -0.57,0.676 -0.924,1.03 l -0.711,0.427 -0.142,-0.214 z m -2.985,3.625 q 0.568,0 0.427,0.64 a 4.542,4.542 0 0 1 -0.071,0.711 3.825,3.825 0 0 1 -0.214,0.782 q -0.284,1.066 -0.355,0.995 a 8.151,8.151 0 0 1 -0.213,-1.564 3.745,3.745 0 0 1 0.142,-1.1 c 0.094,-0.309 0.188,-0.463 0.284,-0.463 z"
       fill="#c49a4e"
       style="fill:#16181c;fill-opacity:1" />
    <path
       id="Caminho_4-5"
       data-name="Caminho 4"
       d="m 195.52932,334.21239 a 15.01,15.01 0 0 1 -3.27,1.137 5.038,5.038 0 0 1 -2.2,0.071 3.026,3.026 0 0 1 -0.924,-0.746 q -0.57,-0.6 -1.067,-1.244 -0.426,-0.568 -0.888,-1.1 a 2.173,2.173 0 0 0 -0.676,-0.6 q -0.356,-0.213 -1.172,0.64 -0.816,0.853 -2.737,3.2 l -1.777,2.274 0.071,-1.493 a 9.187,9.187 0 0 1 0.285,-1.813 q 0.283,-1.243 0.64,-2.452 a 10.568,10.568 0 0 0 0.64,-3.092 q -0.072,-0.746 -1.067,-0.6 a 0.706,0.706 0 0 0 -0.427,0.107 1.373,1.373 0 0 0 -0.32,0.427 3.717,3.717 0 0 0 -0.32,0.959 q -0.143,0.64 -0.427,1.777 -0.322,1.839 -0.464,3.185 c -0.082,0.147 -0.161,0.292 -0.246,0.441 q -2.132,3.768 -3.838,4.016 -1.706,0.248 -2.346,-2.1 -0.143,-0.5 0.036,-0.533 a 4.146,4.146 0 0 0 0.959,-0.676 8.338,8.338 0 0 0 2.061,-2.63 6.449,6.449 0 0 0 0.853,-2.914 q 0,-1 -0.391,-1.28 a 1.827,1.827 0 0 0 -1.315,-0.142 4.629,4.629 0 0 0 -1.528,1.351 6.5,6.5 0 0 0 -1.315,2.346 2.2,2.2 0 0 1 -0.6,0.924 2.023,2.023 0 0 1 -1.031,0.071 1.528,1.528 0 0 0 -1.03,0.036 2.54,2.54 0 0 0 -0.533,1.173 v -0.071 q -0.141,0.57 0.178,0.64 a 4.481,4.481 0 0 1 0.675,0.213 3.99,3.99 0 0 1 1,0.462 1.321,1.321 0 0 1 0.355,0.533 6.662,6.662 0 0 0 1.35,2.417 5.725,5.725 0 0 0 1.386,1.03 1.885,1.885 0 0 0 1.6,0.071 5.053,5.053 0 0 0 1.883,-1.528 16.631,16.631 0 0 0 1.748,-2.645 c 0,0.04 -0.005,0.083 -0.007,0.121 a 8.793,8.793 0 0 0 0.142,2.452 0.757,0.757 0 0 0 0.96,0.64 2.05,2.05 0 0 0 1.315,-1.137 q 0.5,-0.709 1.209,-1.67 0.709,-0.961 1.35,-1.742 0.64,-0.782 1.138,-1.351 0.498,-0.569 0.639,-0.568 0.142,0 0.391,0.32 a 2.524,2.524 0 0 1 0.391,0.746 4.705,4.705 0 0 0 0.781,0.995 8.759,8.759 0 0 0 1.031,0.889 6.3,6.3 0 0 0 1.066,0.64 2.2,2.2 0 0 0 0.889,0.249 7.508,7.508 0 0 0 2.346,-0.533 13.669,13.669 0 0 0 2.986,-1.528 q 0.994,-0.568 0.853,-0.746 -0.141,-0.178 -1.291,0.381 z m -22.141,-1.421 q 0.249,-0.5 0.6,-1.1 a 10.452,10.452 0 0 1 0.711,-1.067 7.452,7.452 0 0 1 0.5,-0.6 c 0.284,-0.142 0.45,0.024 0.5,0.5 a 2.348,2.348 0 0 1 -0.427,1.493 4.443,4.443 0 0 1 -1.315,1.421 q -0.817,0.57 -0.817,0.071 a 1.91,1.91 0 0 1 0.248,-0.719 z"
       fill="#c49a4e"
       style="fill:#16181c;fill-opacity:1" />
  </g>
  <g
     id="g3"
     transform="translate(-88.038986,-297.56735)"
     style="fill:#16181c;fill-opacity:1">
    <path
       id="Caminho_5-3"
       data-name="Caminho 5"
       d="m 308.78729,298.01139 a 7.02,7.02 0 0 0 -1.67,-0.178 q -1.245,-0.034 -3.021,-0.035 -1.919,0 -4.3,0.035 -2.381,0.035 -4.9,0.142 l -4.976,0.213 q -2.452,0.107 -4.584,0.32 -2.417,0.213 -5.651,0.568 l -6.468,0.711 q -3.235,0.356 -6.042,0.711 -2.807,0.355 -4.3,0.568 -2.2,0.357 -5.011,0.817 -2.811,0.46 -5.686,0.96 -2.879,0.5 -5.509,0.995 -2.63,0.495 -4.407,0.853 -4.409,1.066 -8.565,2.417 -4.156,1.351 -7.428,2.772 a 39.08,39.08 0 0 0 -5.331,2.737 q -2.061,1.316 -2.2,2.31 -0.214,1.066 1.244,1.955 a 33.857,33.857 0 0 0 5.366,2.31 q 1.067,0.427 2.346,1.067 a 26.063,26.063 0 0 1 2.488,1.421 q 1.208,0.783 2.2,1.564 a 12.333,12.333 0 0 1 1.564,1.421 q 0.426,0.57 0.924,1.351 a 5.341,5.341 0 0 1 0.64,1.28 l 0.711,1.421 -3.412,1.066 q -4.549,1.423 -5.864,2.026 -1.315,0.603 -0.533,1.03 a 2.014,2.014 0 0 0 1.03,0.178 6.3,6.3 0 0 0 1.173,-0.178 3.236,3.236 0 0 0 0.959,-0.391 q 0.39,-0.249 0.32,-0.533 -0.072,-0.214 0.817,-0.6 0.889,-0.386 2.168,-0.817 1.136,-0.355 2.1,-0.6 a 8.835,8.835 0 0 1 1.1,-0.249 q 0.426,0 0.746,0.675 a 20.576,20.576 0 0 1 0.889,2.737 q 0.141,0.64 0.32,1.315 0.179,0.675 0.32,1.457 0.142,1 0.391,2.595 0.249,1.595 0.391,3.874 0.214,2.985 0.32,5.011 a 11.6,11.6 0 0 1 -0.035,2.594 9.2,9.2 0 0 0 -0.249,1.315 q -0.106,0.817 -0.142,1.671 c -0.024,0.568 -0.035,1.125 -0.035,1.67 a 9.732,9.732 0 0 0 0.071,1.315 1.409,1.409 0 0 0 0.569,1.208 q 1,0.355 1.173,-0.355 a 16.365,16.365 0 0 0 -0.106,-3.767 q -0.072,-1.706 -0.072,-3.625 0,-1.919 0.142,-3.341 0.142,-1.209 0.5,-3.269 0.358,-2.06 0.817,-4.407 0.461,-2.346 0.924,-4.62 0.463,-2.274 0.889,-3.981 l 0.568,-2.559 2.417,-0.5 q 5.26,-1.135 10.165,-1.812 4.905,-0.677 8.529,-0.817 a 12.4,12.4 0 0 1 2.452,-0.036 q 0.747,0.107 0.817,0.249 c 0,0.142 0.107,0.19 0.32,0.142 a 0.472,0.472 0 0 0 0.391,-0.284 0.6,0.6 0 0 0 -0.107,-0.64 1.312,1.312 0 0 0 -0.675,-0.5 q -0.427,0 -1.528,0.071 a 12.606,12.606 0 0 0 -2.239,0.355 l -4.052,0.568 q -1.067,0.143 -2.2,0.32 -1.133,0.177 -2.133,0.32 -1.991,0.356 -4.371,0.711 -2.38,0.355 -3.731,0.64 l -3.057,0.569 -0.355,0.142 q -0.072,0 0.142,-1.03 0.214,-1.03 0.64,-2.7 0.426,-1.669 0.96,-3.661 0.534,-1.992 1.1,-3.909 l 1.03,-3.483 q 0.462,-1.563 0.746,-2.417 a 17.391,17.391 0 0 0 0.96,-3.27 q 0.107,-0.923 -0.533,-1.137 c -0.1,0 -0.261,0.012 -0.5,0.036 -0.239,0.024 -0.4,0.036 -0.5,0.036 a 1.465,1.465 0 0 0 -0.427,0.569 5.291,5.291 0 0 0 -0.355,0.924 7.291,7.291 0 0 0 -0.214,1 2.132,2.132 0 0 0 0,0.782 24.082,24.082 0 0 1 -0.781,4.194 q -0.853,3.7 -2.915,11.3 l -0.853,3.128 -3.27,0.64 h 0.071 a 17.293,17.293 0 0 1 -2.346,0.5 q -1.067,0.143 -1.137,0 h 0.071 a 2.655,2.655 0 0 1 -0.356,-0.5 c -0.142,-0.237 -0.309,-0.5 -0.5,-0.782 a 15.694,15.694 0 0 0 -4.197,-4.741 28.86,28.86 0 0 0 -6.752,-3.874 q -4.764,-1.919 -4.9,-2.772 -0.07,-0.427 0.96,-1.208 a 20.8,20.8 0 0 1 2.772,-1.706 q 1.741,-0.923 3.981,-1.919 2.24,-0.996 4.585,-1.848 6.467,-2.061 14.962,-3.909 8.495,-1.848 17.734,-3.234 9.24,-1.386 18.587,-2.2 9.347,-0.814 17.521,-0.817 h 5.115 q 1.136,0 1.706,0.036 c 0.379,0.024 0.64,0.048 0.782,0.071 0.142,0.023 0.2,0.071 0.177,0.142 a 0.606,0.606 0 0 1 -0.249,0.249 c -0.237,0.238 -0.237,0.368 0,0.391 a 1.209,1.209 0 0 0 0.782,-0.249 q 1.065,-0.783 -0.925,-1.281 z m -70.547,30.849 a 20.321,20.321 0 0 0 2.026,-0.569 q 2.06,-0.568 2.594,-0.64 c 0.355,-0.047 0.508,0.119 0.462,0.5 a 15.915,15.915 0 0 0 -0.533,2.7 q -0.392,2.489 -0.959,5.757 l -0.782,4.407 q -0.356,1.563 -0.533,2.559 -0.177,0.996 -0.32,1.067 h 0.072 q -0.213,0.355 -0.356,-0.107 a 4.041,4.041 0 0 1 -0.142,-1.173 q -0.071,-0.783 -0.177,-1.883 -0.106,-1.1 -0.284,-2.381 -0.178,-1.28 -0.355,-2.559 -0.177,-1.279 -0.391,-2.417 -0.285,-1.349 -0.5,-2.31 a 10.088,10.088 0 0 0 -0.355,-1.315 l -0.568,-1.422 a 10.123,10.123 0 0 0 1.101,-0.214 z"
       fill="#c49a4e"
       style="fill:#16181c;fill-opacity:1" />
    <path
       id="Caminho_6-5"
       data-name="Caminho 6"
       d="m 272.46329,322.60439 a 3.069,3.069 0 0 0 0.533,-1.528 q -0.037,-0.533 -0.746,-0.391 a 1.692,1.692 0 0 0 -0.995,0.853 2.088,2.088 0 0 0 -0.284,1.493 q 0.354,1.706 1.492,-0.427 z"
       fill="#c49a4e"
       style="fill:#16181c;fill-opacity:1" />
    <path
       id="Caminho_7-6"
       data-name="Caminho 7"
       d="m 308.39229,329.67739 a 29.7,29.7 0 0 0 -2.665,1.457 l -2.843,1.706 -1.777,-1.493 h 0.071 a 0.112,0.112 0 0 1 -0.107,-0.071 0.116,0.116 0 0 0 -0.107,-0.071 q -0.64,-0.568 -1.066,-1 a 3.828,3.828 0 0 1 -0.261,-0.285 1.532,1.532 0 0 0 0.119,-0.426 1.065,1.065 0 0 0 -0.014,-0.183 c 0.065,-0.053 0.139,-0.11 0.227,-0.173 a 10.272,10.272 0 0 1 1.173,-0.711 q 0.675,-0.355 1.315,-0.64 a 2.693,2.693 0 0 1 1,-0.285 2.174,2.174 0 0 0 1.564,-0.711 h -0.072 a 2.886,2.886 0 0 0 0.6,-0.959 q 0.034,-0.249 -0.533,-0.676 a 1.428,1.428 0 0 0 -1.493,-0.284 13.932,13.932 0 0 0 -2.7,1.493 12.393,12.393 0 0 0 -2.133,1.635 2.163,2.163 0 0 0 -0.781,1.421 1.609,1.609 0 0 0 0.5,1.1 c 0.029,0.031 0.066,0.066 0.1,0.1 q -0.652,1.114 -1.731,3.136 -1,1.85 -1.919,3.412 a 12.071,12.071 0 0 1 -1.35,1.99 h 0.071 q -1,1.208 -1.421,0.462 a 8.9,8.9 0 0 1 -0.355,-3.661 c 0,-0.663 0.011,-1.255 0.036,-1.777 a 11.552,11.552 0 0 1 0.177,-1.564 q 0.141,-0.781 0.355,-1.67 0.214,-0.889 0.569,-2.026 0.426,-1.493 0.675,-2.665 a 4.221,4.221 0 0 0 0.178,-1.315 q -0.144,-0.5 -0.924,-0.355 a 1.107,1.107 0 0 0 -0.711,0.32 3.848,3.848 0 0 0 -0.5,1.173 11.165,11.165 0 0 1 -1.279,2.879 q -0.5,0.6 -1.067,-0.107 a 2.416,2.416 0 0 0 -1.35,-0.214 q -2.418,0 -4.194,3.412 a 6.176,6.176 0 0 0 -0.924,2.985 2.633,2.633 0 0 0 0.1,0.739 c -0.505,1.081 -1.044,2.16 -1.627,3.241 a 24.319,24.319 0 0 1 -1.955,3.092 q -1,1.315 -1.706,1.315 -0.57,0 -0.818,-0.959 a 10.719,10.719 0 0 1 -0.249,-2.595 q 0,-1.564 0.214,-3.661 0.214,-2.097 0.6,-4.3 0.39,-2.2 0.96,-4.407 a 32.607,32.607 0 0 1 1.28,-3.98 q 0.283,-0.709 0.426,-1.172 a 1.136,1.136 0 0 1 0.5,-0.676 10.807,10.807 0 0 1 1.564,-0.462 23.053,23.053 0 0 1 3.98,-0.462 13.762,13.762 0 0 1 2.594,-0.035 q 0.675,0.107 0.533,0.39 c -0.1,0.142 -0.1,0.238 0,0.285 a 0.636,0.636 0 0 0 0.427,0 4.942,4.942 0 0 0 0.64,-0.214 1.672,1.672 0 0 0 0.568,-0.355 q 0.141,-0.5 0,-0.64 a 3.315,3.315 0 0 0 -1.137,-0.142 q -0.783,0 -2.133,0.142 -1.422,0.143 -2.239,0.213 -0.817,0.07 -1.457,0.142 -0.64,0.072 -1.35,0.142 -0.71,0.07 -1.848,0.284 l 0.924,-1.422 a 2.786,2.786 0 0 0 0.5,-1.564 q -0.072,-0.568 -0.853,-0.568 -1.21,0 -1.848,2.2 c -0.048,0.238 -0.107,0.5 -0.178,0.782 -0.071,0.282 -0.131,0.545 -0.177,0.782 l -3.154,0.5 q -1.607,0.357 -2.6,0.64 -0.993,0.283 -0.711,0.5 a 1.605,1.605 0 0 0 0.32,0.533 c 0.119,0.119 0.177,0.131 0.177,0.036 0,-0.047 0.273,-0.142 0.817,-0.285 0.544,-0.143 1.137,-0.284 1.777,-0.426 0.64,-0.142 1.267,-0.273 1.884,-0.391 0.5,-0.1 0.837,-0.152 1.025,-0.17 q -0.9,3.245 -1.485,5.678 c -0.235,0.972 -0.44,1.884 -0.621,2.75 l -0.269,0.448 c -0.1,0.142 -0.214,0.345 -0.355,0.6 -0.141,0.255 -0.261,0.462 -0.355,0.6 a 19.207,19.207 0 0 1 -2.985,3.661 q -1.565,1.458 -2.488,1.315 -1.137,-0.143 -1.137,-1.99 a 10.233,10.233 0 0 1 0.356,-2.417 15.534,15.534 0 0 1 1.066,-2.914 2.987,2.987 0 0 0 0.284,-1.457 0.593,0.593 0 0 0 -0.64,-0.6 q -1.209,0 -2.061,2.63 a 8.982,8.982 0 0 0 -0.39,1.671 11.766,11.766 0 0 0 -0.107,1.528 c 0,0.021 0,0.04 0,0.061 -1.168,1.827 -2.236,2.819 -3.2,2.96 q -1.706,0.25 -2.346,-2.1 -0.143,-0.5 0.036,-0.533 a 4.156,4.156 0 0 0 0.96,-0.676 8.338,8.338 0 0 0 2.061,-2.63 6.443,6.443 0 0 0 0.853,-2.914 q 0,-1 -0.39,-1.28 a 1.829,1.829 0 0 0 -1.316,-0.142 4.624,4.624 0 0 0 -1.528,1.351 6.488,6.488 0 0 0 -1.315,2.346 c -0.079,0.173 -0.152,0.314 -0.223,0.44 l -0.274,0.129 a 9.593,9.593 0 0 1 -1.036,0.433 c -0.035,0 -0.064,0 -0.1,-0.006 a 1.528,1.528 0 0 0 -1.03,0.036 0.755,0.755 0 0 0 -0.175,0.23 1.673,1.673 0 0 1 -0.678,-0.123 q -0.96,-0.426 -0.676,-2.488 a 9.018,9.018 0 0 0 0.213,-1.457 0.715,0.715 0 0 0 -0.284,-0.6 c -0.332,-0.33 -0.616,-0.45 -0.853,-0.355 a 4.1,4.1 0 0 0 -1.137,1.067 q -0.5,0.57 -1.173,1.421 -0.673,0.851 -1.421,1.883 a 22.659,22.659 0 0 0 -1.386,2.168 18.608,18.608 0 0 0 -1.066,2.2 2.22,2.22 0 0 1 -0.071,-1.066 13.8,13.8 0 0 1 0.284,-1.742 q 0.214,-0.959 0.533,-1.99 0.319,-1.031 0.676,-1.884 a 4,4 0 0 0 0.5,-1.137 3.89,3.89 0 0 0 0.142,-0.853 1.19,1.19 0 0 0 -0.781,-0.32 1.426,1.426 0 0 0 -0.853,0.177 4.812,4.812 0 0 0 -0.817,2.026 28.458,28.458 0 0 0 -0.6,3.376 23.633,23.633 0 0 0 -0.178,3.341 q 0.037,1.565 0.462,1.848 a 0.558,0.558 0 0 0 0.817,0 2.938,2.938 0 0 0 0.817,-1.138 q 0.284,-0.709 0.747,-1.67 0.463,-0.961 1,-1.884 0.532,-0.923 1.03,-1.671 0.498,-0.748 0.781,-1.1 l 0.711,-0.711 c 0.1,-0.094 0.166,0.025 0.214,0.355 a 3.613,3.613 0 0 0 0.818,2.346 3.107,3.107 0 0 0 1.172,0.782 3.161,3.161 0 0 0 0.7,0.129 c -0.072,0.34 -0.014,0.538 0.187,0.582 a 4.482,4.482 0 0 1 0.676,0.213 3.975,3.975 0 0 1 0.995,0.462 1.31,1.31 0 0 1 0.355,0.533 5.393,5.393 0 0 0 0.569,1.315 5.32,5.32 0 0 0 0.782,1.1 5.723,5.723 0 0 0 1.386,1.03 1.885,1.885 0 0 0 1.6,0.071 5.057,5.057 0 0 0 1.884,-1.528 12.666,12.666 0 0 0 1.017,-1.411 5.4,5.4 0 0 0 1.08,2.832 1.659,1.659 0 0 0 1.492,0.64 2.631,2.631 0 0 0 1.316,-0.39 8.83,8.83 0 0 0 1.457,-1.1 17.54,17.54 0 0 0 1.848,-2.025 24.572,24.572 0 0 0 1.445,-2.032 q -0.331,1.891 -0.459,3.6 -0.133,1.813 -0.133,3.8 a 8.979,8.979 0 0 0 0.267,2.417 5.02,5.02 0 0 0 0.666,1.493 1.261,1.261 0 0 0 1.341,0.568 3.051,3.051 0 0 0 1.635,-0.924 8.348,8.348 0 0 0 1.03,-1.386 q 0.6,-0.959 1.244,-2.2 0.644,-1.241 1.315,-2.665 c 0.114,-0.24 0.225,-0.486 0.337,-0.729 a 1.475,1.475 0 0 0 1.119,0.445 q 1.35,0 3.91,-3.838 0.639,-0.994 1.172,-1.706 c 0.355,-0.473 0.6,-0.64 0.746,-0.5 a 3.59,3.59 0 0 0 -0.071,0.711 3.784,3.784 0 0 0 -0.071,0.746 6.512,6.512 0 0 1 -0.071,0.889 5.685,5.685 0 0 0 -0.142,1.244 v 1.172 a 10.31,10.31 0 0 0 0.427,3.164 2.869,2.869 0 0 0 1.208,1.741 2.3,2.3 0 0 0 1.03,0.355 1.389,1.389 0 0 0 0.68,-0.253 c 0,0.013 0,0.027 0,0.04 a 3.35,3.35 0 0 0 0.071,0.64 2.268,2.268 0 0 0 0.142,0.5 q 1.35,0.71 7.819,-4.123 a 7.517,7.517 0 0 0 1.919,-1.884 1.87,1.87 0 0 0 0.071,-1.67 1.708,1.708 0 0 1 -0.178,-0.533 0.568,0.568 0 0 1 0.249,-0.5 6.246,6.246 0 0 1 0.889,-0.6 q 0.6,-0.355 1.742,-0.995 1.28,-0.64 2.133,-1.137 0.853,-0.497 0.853,-0.64 -0.03,-0.351 -0.635,-0.103 z m -45.524,-0.64 a 10.371,10.371 0 0 1 0.711,-1.067 7.5,7.5 0 0 1 0.5,-0.6 c 0.285,-0.142 0.45,0.024 0.5,0.5 a 2.348,2.348 0 0 1 -0.427,1.493 4.453,4.453 0 0 1 -1.315,1.421 q -0.818,0.57 -0.817,0.071 a 1.909,1.909 0 0 1 0.249,-0.711 q 0.244,-0.501 0.599,-1.106 z m -4.834,3.221 v 0 0.013 z m 28.288,2.287 a 3.017,3.017 0 0 1 -1.551,1.173 c -0.434,0.071 -0.653,-0.154 -0.653,-0.676 a 1.666,1.666 0 0 1 0.031,-0.294 c 0.061,-0.139 0.123,-0.276 0.183,-0.416 0.122,-0.3 0.232,-0.576 0.336,-0.838 a 9.191,9.191 0 0 1 0.721,-1.117 7.2,7.2 0 0 1 1.115,-1.173 1.75,1.75 0 0 1 1.026,-0.5 q 2.06,0 -1.28,3.838 z m 10.734,0.5 q 0.708,-1.28 1.315,-2.452 c 0.269,-0.523 0.5,-0.994 0.709,-1.421 0.238,0.208 0.508,0.431 0.819,0.675 a 5.192,5.192 0 0 1 1.457,1.315 q 0.106,0.32 -0.533,0.675 a 57.908,57.908 0 0 0 -5.241,3.77 l 0.088,-0.145 q 0.675,-1.138 1.386,-2.418 z m 0.853,3.412 v -0.071 l -0.5,0.355 -1.634,0.817 a 2.942,2.942 0 0 1 -0.782,0.32 c -0.142,0 -0.118,-0.142 0.071,-0.427 a 6.419,6.419 0 0 1 0.924,-1.03 q 0.64,-0.605 1.457,-1.315 0.817,-0.71 1.67,-1.351 a 11.511,11.511 0 0 1 2.63,-1.421 q 0.781,-0.214 0.781,0.64 0.002,1.065 -4.613,3.481 z"
       fill="#c49a4e"
       style="fill:#16181c;fill-opacity:1" />
  </g>
</svg>
